<svg id="42d4ac5a-0aa9-4cec-b047-75ee4fdb2e40" data-name="Детали" xmlns="http://www.w3.org/2000/svg" viewBox="0 0 91.49 108.32"><title>2</title><path d="M762.78,201.32a43.74,43.74,0,1,1,43.74-43.74A43.79,43.79,0,0,1,762.78,201.32Z" transform="translate(-717.03 -95)" style="fill:#333"/><path d="M762.78,115.83A41.74,41.74,0,1,1,721,157.58a41.74,41.74,0,0,1,41.74-41.74m0-4a45.74,45.74,0,1,0,45.74,45.74,45.8,45.8,0,0,0-45.74-45.74h0Z" transform="translate(-717.03 -95)" style="fill:#f60"/><path d="M754.21,145.82L769.12,128l12.48,10.48-20,23.85L751,153.47l0-.06,0.74,0.22c1.53,0.49,3.06,1,4.59,1.47a3.55,3.55,0,0,0,4.66-3.78,3.42,3.42,0,0,0-1.81-2.69c-1.55-.88-3.11-1.75-4.67-2.63ZM765,140a4.89,4.89,0,0,0-4.93,5.42,5.71,5.71,0,0,0,6.35,5,4.87,4.87,0,0,0,4.23-4.62A5.7,5.7,0,0,0,765,140Z" transform="translate(-717.03 -95)" style="fill:#fff"/><path d="M786.25,175.23l-3.17.3-5.5.51c-1,.09-1.92.19-2.88,0.26a0.52,0.52,0,0,1-.36-0.22,3.78,3.78,0,0,0-2.59-1.67,9,9,0,0,0-1.28-.09c-2.7,0-5.4,0-8.09,0a8.53,8.53,0,0,1-5.19-1.59c-1.07-.76-2.05-1.64-3-2.49-1.45-1.25-2.86-2.53-4.31-3.78a2.21,2.21,0,0,1,2.68-3.52c2.05,1.42,4.1,2.84,6.16,4.25a6.5,6.5,0,0,0,3.68,1.13c2.66,0,5.33,0,8,0a0.67,0.67,0,1,0,0-1.33h-5.09a2.06,2.06,0,0,1-2-2.13,2,2,0,0,1,2-2c3.43,0,6.86,0,10.28,0a8.31,8.31,0,0,1,4.4,1.06,7.8,7.8,0,0,1,2.51,2.68,33.58,33.58,0,0,1,2.57,5.59l1,2.67Z" transform="translate(-717.03 -95)" style="fill:#fff"/><path d="M759.09,137.73l-1.52,1.81c-1.11,1.33-2.23,2.65-3.33,4a0.58,0.58,0,0,1-.51.24c-0.45,0-.9,0-1.35,0a1.29,1.29,0,0,0-1.28.91,1.25,1.25,0,0,0,.65,1.45c2.24,1.26,4.49,2.51,6.73,3.78a2.09,2.09,0,0,1,.06,3.63,1.91,1.91,0,0,1-1.59.21q-3.92-1.24-7.82-2.51a5.68,5.68,0,0,1-2.4-1.69c-0.24-.26-0.49-0.53-0.76-0.77a1.43,1.43,0,0,0-1.41-.33l-3.29.86-0.36.08V149c0-3.21,0-6.43,0-9.64,0-.33.07-0.47,0.42-0.43a4.35,4.35,0,0,0,1.72-.26l6.18-1.78a8.21,8.21,0,0,1,3.77-.23Z" transform="translate(-717.03 -95)" style="fill:#fff"/><path d="M736.11,137.73h3.19V151.6H737.4Z" transform="translate(-717.03 -95)" style="fill:#fff"/><path d="M773.73,179.85V178l13.9-1.29v3.18h-13.9Z" transform="translate(-717.03 -95)" style="fill:#fff"/><path d="M768.81,147.39l-0.84,1c-0.17-.14-0.34-0.25-0.48-0.39a0.28,0.28,0,0,0-.45,0c-0.36.29-.76,0.53-1.18,0.82L765,147.53l0.5-.24a2.47,2.47,0,0,0,1.15-1,0.51,0.51,0,0,0,0-.45,0.56,0.56,0,0,0-.47-0.09,8.06,8.06,0,0,0-.75.36,5.13,5.13,0,0,1-1.15.44,1.67,1.67,0,0,1-1.92-2.07,0.93,0.93,0,0,0-.45-1.23,0.34,0.34,0,0,1-.06-0.09l0.82-1,0.61,0.5,1-.67a0.25,0.25,0,0,1,.41.1c0.22,0.32.45,0.64,0.65,0.93-0.39.29-.76,0.56-1.11,0.85a1,1,0,0,0-.29.41,0.44,0.44,0,0,0,0,.36,0.36,0.36,0,0,0,.33,0c0.31-.12.61-0.29,0.91-0.43a5.73,5.73,0,0,1,.8-0.35,1.82,1.82,0,0,1,2.28,2.28,0.78,0.78,0,0,0,.36,1.06A2.59,2.59,0,0,1,768.81,147.39Z" transform="translate(-717.03 -95)" style="fill:#fff"/><path d="M756.7,107.78l-8,1.68-0.45-2.11,2.55-.54-1.35-6.39-2.55.54-0.42-2a8.68,8.68,0,0,0,1.1-.31,3,3,0,0,0,.84-0.42,1.54,1.54,0,0,0,.49-0.65,1.7,1.7,0,0,0,.08-0.87l2.65-.56,2.11,10,2.49-.53Z" transform="translate(-717.03 -95)"/><path d="M767.24,101.35a13.51,13.51,0,0,1-.21,2.81,5.44,5.44,0,0,1-.79,2,3.56,3.56,0,0,1-1.45,1.24,6.16,6.16,0,0,1-4.42.07,3.57,3.57,0,0,1-1.5-1.21,5.53,5.53,0,0,1-.85-2,15.44,15.44,0,0,1-.09-5.59,5.46,5.46,0,0,1,.81-2,3.55,3.55,0,0,1,1.47-1.25,5.37,5.37,0,0,1,2.17-.44,5.23,5.23,0,0,1,2.24.38,3.64,3.64,0,0,1,1.49,1.23,5.49,5.49,0,0,1,.85,2A13.34,13.34,0,0,1,767.24,101.35Zm-3.11.05a9.49,9.49,0,0,0-.43-3.21,1.34,1.34,0,0,0-2.54,0,9.45,9.45,0,0,0-.33,3.24,9.41,9.41,0,0,0,.43,3.19,1.33,1.33,0,0,0,2.54,0A9.49,9.49,0,0,0,764.13,101.4Z" transform="translate(-717.03 -95)"/><path d="M778.59,103.47a13.55,13.55,0,0,1-.81,2.7,5.45,5.45,0,0,1-1.2,1.81,3.56,3.56,0,0,1-1.68.9,6.16,6.16,0,0,1-4.34-.87,3.57,3.57,0,0,1-1.21-1.5,5.53,5.53,0,0,1-.41-2.13A15.45,15.45,0,0,1,770,98.9a5.46,5.46,0,0,1,1.22-1.79A3.56,3.56,0,0,1,773,96.2a5.37,5.37,0,0,1,2.21,0,5.24,5.24,0,0,1,2.1.85,3.63,3.63,0,0,1,1.19,1.51,5.49,5.49,0,0,1,.41,2.13A13.39,13.39,0,0,1,778.59,103.47Zm-3.05-.61a9.48,9.48,0,0,0,.27-3.23,1.34,1.34,0,0,0-2.49-.5,13.74,13.74,0,0,0-1.27,6.31,1.33,1.33,0,0,0,2.49.5A9.48,9.48,0,0,0,775.54,102.86Z" transform="translate(-717.03 -95)"/><path d="M788.74,105a4.4,4.4,0,0,1-2.26,2.25,3.43,3.43,0,0,1-2.82-.38,3.49,3.49,0,0,1-1.91-2.16,5.45,5.45,0,0,1,2.9-5.33,3.49,3.49,0,0,1,2.84.4,3.41,3.41,0,0,1,1.89,2.16A4.39,4.39,0,0,1,788.74,105Zm7.44-.25-11.57,7.8-1.93-1,11.57-7.8Zm-9.53-.85a9.32,9.32,0,0,0,.41-0.86,2.34,2.34,0,0,0,.19-0.72,1,1,0,0,0-.12-0.56,1.17,1.17,0,0,0-.47-0.42,1.14,1.14,0,0,0-.62-0.17,1,1,0,0,0-.53.22,2.33,2.33,0,0,0-.5.55,8.88,8.88,0,0,0-.5.82q-0.29.54-.43,0.87a2.15,2.15,0,0,0-.17.7,1,1,0,0,0,.11.57,1.35,1.35,0,0,0,1.09.59,1,1,0,0,0,.54-0.22,2.56,2.56,0,0,0,.47-0.52A8,8,0,0,0,786.64,103.92Zm9.83,10.74a4.4,4.4,0,0,1-2.26,2.25,3.43,3.43,0,0,1-2.82-.38,3.49,3.49,0,0,1-1.91-2.16,5.45,5.45,0,0,1,2.9-5.33,3.49,3.49,0,0,1,2.84.4,3.41,3.41,0,0,1,1.89,2.16A4.39,4.39,0,0,1,796.47,114.65Zm-2.09-1.1a9,9,0,0,0,.41-0.86A2.34,2.34,0,0,0,795,112a1,1,0,0,0-.12-0.56,1.18,1.18,0,0,0-.47-0.42,1.14,1.14,0,0,0-.62-0.17,1,1,0,0,0-.53.22,2.33,2.33,0,0,0-.5.55,8.75,8.75,0,0,0-.5.82q-0.29.54-.43,0.87a2.15,2.15,0,0,0-.17.7,0.94,0.94,0,0,0,.11.57,1.16,1.16,0,0,0,.48.43,1.14,1.14,0,0,0,.61.16,1,1,0,0,0,.54-0.22,2.53,2.53,0,0,0,.47-0.52A7.91,7.91,0,0,0,794.38,113.55Z" transform="translate(-717.03 -95)"/></svg>