<svg id="f985c42a-cf47-4cf2-a321-d457e0e208dc" data-name="Детали" xmlns="http://www.w3.org/2000/svg" viewBox="0 0 91.49 108.32"><title>3</title><path d="M921.29,201.32A43.74,43.74,0,1,1,965,157.58,43.79,43.79,0,0,1,921.29,201.32Z" transform="translate(-875.55 -95)" style="fill:#333"/><path d="M921.29,115.83a41.74,41.74,0,1,1-41.74,41.74,41.74,41.74,0,0,1,41.74-41.74m0-4A45.74,45.74,0,1,0,967,157.58a45.8,45.8,0,0,0-45.74-45.74h0Z" transform="translate(-875.55 -95)" style="fill:#f60"/><path d="M923.37,165.58l-9.84,23.19c-0.3-.51-0.54-0.9-0.76-1.29-1.34-2.35-2.71-4.69-4-7.08a1.24,1.24,0,0,0-1.72-.76c-3.06.85-6.14,1.59-9.36,2.41l8.86-20.87,6.15,3.23,0.19-.26c-6.22-3.13-10.15-8-11.21-14.91a18.93,18.93,0,0,1,6.16-17.64,19.67,19.67,0,0,1,28,1.36,19.08,19.08,0,0,1,4.64,17.19c-1.31,6.44-5.14,11-11,14a22.48,22.48,0,0,0,6.35-3.28l9,21.13-4-1c-1.9-.48-3.81-0.94-5.7-1.48a0.85,0.85,0,0,0-1.17.49c-1.49,2.68-3,5.34-4.54,8-0.11.19-.23,0.37-0.41,0.67-0.24-.53-0.44-1-0.63-1.41q-3.18-7.48-6.34-15a2,2,0,0,1-.07-1.17c0.43-1.69.92-3.36,1.39-5,0-.17.07-0.36,0.1-0.53Zm-17.82-19.42a15.65,15.65,0,1,0,15.67-15.66A15.68,15.68,0,0,0,905.55,146.17Z" transform="translate(-875.55 -95)" style="fill:#fff"/><path d="M916.08,147.93l0.47,0.12-5.08-5.53c1.4-.21,3-0.57,4.64-0.66A2.87,2.87,0,0,0,919,139.8c0.58-1.51,1.41-2.93,2.22-4.56l2.86,5.77h-1.83l0,0.23,9,1.32c-1.22,1.61-4.51,4.56-5,4.44l1.26,7.42-5.82-3.06,0.75-.66-0.08-.13L915,154.42Z" transform="translate(-875.55 -95)" style="fill:#fff"/><path d="M915.13,107.78l-8,1.68-0.45-2.11,2.55-.54-1.35-6.39-2.55.54-0.42-2a8.68,8.68,0,0,0,1.1-.31,3,3,0,0,0,.84-0.42,1.54,1.54,0,0,0,.49-0.65,1.7,1.7,0,0,0,.08-0.87l2.65-.56,2.11,10,2.49-.53Z" transform="translate(-875.55 -95)"/><path d="M925.67,101.35a13.51,13.51,0,0,1-.21,2.81,5.44,5.44,0,0,1-.79,2,3.56,3.56,0,0,1-1.45,1.24,6.16,6.16,0,0,1-4.42.07,3.57,3.57,0,0,1-1.5-1.21,5.53,5.53,0,0,1-.85-2,15.44,15.44,0,0,1-.09-5.59,5.46,5.46,0,0,1,.81-2,3.55,3.55,0,0,1,1.47-1.25A5.37,5.37,0,0,1,920.8,95a5.23,5.23,0,0,1,2.24.38,3.64,3.64,0,0,1,1.49,1.23,5.49,5.49,0,0,1,.85,2A13.34,13.34,0,0,1,925.67,101.35Zm-3.11.05a9.49,9.49,0,0,0-.43-3.21,1.34,1.34,0,0,0-2.54,0,9.45,9.45,0,0,0-.33,3.24,9.41,9.41,0,0,0,.43,3.19,1.33,1.33,0,0,0,2.54,0A9.49,9.49,0,0,0,922.55,101.4Z" transform="translate(-875.55 -95)"/><path d="M937,103.47a13.55,13.55,0,0,1-.81,2.7A5.45,5.45,0,0,1,935,108a3.56,3.56,0,0,1-1.68.9A6.16,6.16,0,0,1,929,108a3.57,3.57,0,0,1-1.21-1.5,5.53,5.53,0,0,1-.41-2.13,15.45,15.45,0,0,1,1.1-5.48,5.46,5.46,0,0,1,1.22-1.79,3.56,3.56,0,0,1,1.71-.91,5.37,5.37,0,0,1,2.21,0,5.24,5.24,0,0,1,2.1.85,3.63,3.63,0,0,1,1.19,1.51,5.49,5.49,0,0,1,.41,2.13A13.39,13.39,0,0,1,937,103.47Zm-3.05-.61a9.48,9.48,0,0,0,.27-3.23,1.34,1.34,0,0,0-2.49-.5,13.74,13.74,0,0,0-1.27,6.31,1.33,1.33,0,0,0,2.49.5A9.48,9.48,0,0,0,934,102.86Z" transform="translate(-875.55 -95)"/><path d="M947.16,105a4.4,4.4,0,0,1-2.26,2.25,3.43,3.43,0,0,1-2.82-.38,3.49,3.49,0,0,1-1.91-2.16,5.45,5.45,0,0,1,2.9-5.33,3.49,3.49,0,0,1,2.84.4A3.41,3.41,0,0,1,947.8,102,4.39,4.39,0,0,1,947.16,105Zm7.44-.25L943,112.56l-1.93-1,11.57-7.8Zm-9.53-.85a9.32,9.32,0,0,0,.41-0.86,2.34,2.34,0,0,0,.19-0.72,1,1,0,0,0-.12-0.56,1.17,1.17,0,0,0-.47-0.42,1.14,1.14,0,0,0-.62-0.17,1,1,0,0,0-.53.22,2.33,2.33,0,0,0-.5.55,8.88,8.88,0,0,0-.5.82q-0.29.54-.43,0.87a2.15,2.15,0,0,0-.17.7,1,1,0,0,0,.11.57,1.35,1.35,0,0,0,1.09.59,1,1,0,0,0,.54-0.22,2.56,2.56,0,0,0,.47-0.52A8,8,0,0,0,945.07,103.92Zm9.83,10.74a4.4,4.4,0,0,1-2.26,2.25,3.43,3.43,0,0,1-2.82-.38,3.49,3.49,0,0,1-1.91-2.16,5.45,5.45,0,0,1,2.9-5.33,3.49,3.49,0,0,1,2.84.4,3.41,3.41,0,0,1,1.89,2.16A4.39,4.39,0,0,1,954.9,114.65Zm-2.09-1.1a9,9,0,0,0,.41-0.86,2.34,2.34,0,0,0,.19-0.72,1,1,0,0,0-.12-0.56,1.18,1.18,0,0,0-.47-0.42,1.14,1.14,0,0,0-.62-0.17,1,1,0,0,0-.53.22,2.33,2.33,0,0,0-.5.55,8.75,8.75,0,0,0-.5.82q-0.29.54-.43,0.87a2.15,2.15,0,0,0-.17.7,0.94,0.94,0,0,0,.11.57,1.16,1.16,0,0,0,.48.43,1.14,1.14,0,0,0,.61.16,1,1,0,0,0,.54-0.22,2.53,2.53,0,0,0,.47-0.52A7.91,7.91,0,0,0,952.81,113.55Z" transform="translate(-875.55 -95)"/></svg>