<svg id="836f1a23-61d3-4a65-a330-b31546e794ff" data-name="Детали" xmlns="http://www.w3.org/2000/svg" viewBox="0 0 91.49 108.32"><title>4</title><path d="M1079.81,201.32a43.74,43.74,0,1,1,43.74-43.74A43.79,43.79,0,0,1,1079.81,201.32Z" transform="translate(-1034.07 -95)" style="fill:#333"/><path d="M1079.81,115.83a41.74,41.74,0,1,1-41.74,41.74,41.74,41.74,0,0,1,41.74-41.74m0-4a45.74,45.74,0,1,0,45.74,45.74,45.8,45.8,0,0,0-45.74-45.74h0Z" transform="translate(-1034.07 -95)" style="fill:#f60"/><path d="M1055.09,160.78c-0.94-.29-1.82-0.53-2.66-0.86a0.94,0.94,0,0,1-.28-0.72c0-1.15,0-2.31,0-3.47,0-4.74,0-9.48,0-14.22,0-.64.18-0.81,0.78-0.6,1.58,0.56,3.18,1,4.74,1.64a5.92,5.92,0,0,0,5.56-.5,73.21,73.21,0,0,1,6.53-3.46,7.67,7.67,0,0,1,4.74-.66,6.16,6.16,0,0,1,2.93,1.34c0.37,0.32.45,0.52-.07,0.82-2,1.08-3.88,2.2-5.81,3.33a6.73,6.73,0,0,0-3.19,3.43,5.71,5.71,0,0,0,3.35,7.06c1.86,0.65,3.45,0,5.06-.74s3.3-1.62,5-2.29a3.19,3.19,0,0,1,3.6.72q4.78,4.75,9.54,9.52a15.11,15.11,0,0,1,1.21,1.23,2.33,2.33,0,0,1-.29,3.44,2.46,2.46,0,0,1-3.42-.29c-1.12-1.13-2.26-2.23-3.41-3.32a2.67,2.67,0,0,0-.69-0.35l-0.16.21a6.08,6.08,0,0,0,.52.77c1,1.13,2.09,2.26,3.17,3.35a2.6,2.6,0,0,1-.35,3.85,2.45,2.45,0,0,1-3.32-.57c-1.21-1.24-2.45-2.45-3.69-3.67a8.15,8.15,0,0,0-.79-0.61l-0.22.18a3.9,3.9,0,0,0,.44.81c1.09,1.21,2.24,2.36,3.32,3.58a2.34,2.34,0,0,1-.13,3.34,2.49,2.49,0,0,1-3.35-.06c-1.26-1.32-2.58-2.58-3.87-3.86a1.77,1.77,0,0,0-.35-0.31,1.59,1.59,0,0,0-.42-0.1,0.89,0.89,0,0,0,0,.45,14.26,14.26,0,0,0,1.07,1.29c0.64,0.68,1.33,1.33,2,2a2.38,2.38,0,0,1,0,3.52,2.49,2.49,0,0,1-3.54-.12c-0.2-.19-0.39-0.39-0.58-0.59a1.73,1.73,0,0,1-.53-1.42,5.29,5.29,0,0,0-3.36-5.29,1.4,1.4,0,0,1-.66-0.75,5.79,5.79,0,0,0-3.11-3.28,2.94,2.94,0,0,1-1-1.39,5.13,5.13,0,0,0-2.46-2.26,1.65,1.65,0,0,1-.73-0.76,5.35,5.35,0,0,0-5-3.43,6,6,0,0,0-5.71,3.27Z" transform="translate(-1034.07 -95)" style="fill:#fff"/><path d="M1107.49,151c0,2.5,0,5,0,7.5a0.79,0.79,0,0,1-.85,1c-1.4.18-2.79,0.53-4.19,0.76a4.56,4.56,0,0,1-4.28-1.13q-5.52-5.51-11.07-11c-1.51-1.49-3-1.46-4.78-.57-2.49,1.25-4.93,2.61-7.42,3.86a3.14,3.14,0,0,1-4.6-3.11,3.2,3.2,0,0,1,1.79-2.58c2-1.1,3.9-2.26,5.87-3.35q4-2.22,8-4.38c1.59-.86,3-0.29,4.29.72,1.88,1.5,3.74,3,5.51,4.66a4.17,4.17,0,0,0,4,.88c1.64-.35,3.28-0.73,4.92-1.09,0.67-.15,1.34-0.25,2-0.44s0.8,0.06.8,0.65C1107.48,145.92,1107.49,148.46,1107.49,151Z" transform="translate(-1034.07 -95)" style="fill:#fff"/><path d="M1068.51,173.18c-0.52.12-.9,0.19-1.27,0.3a2.29,2.29,0,0,1-3.09-2.34,11.27,11.27,0,0,1,.51-1.62,8.13,8.13,0,0,0-1.08.21c-1.6.56-2.76-.38-3.07-1.94a3.31,3.31,0,0,1,.34-1.33c0-.17.12-0.34,0.24-0.68-0.5.11-.86,0.16-1.2,0.27a2.32,2.32,0,0,1-2.93-2.77,5.12,5.12,0,0,1,1.64-3.07c1.36-1.31,4.2-1.24,5,.7a4,4,0,0,1,.21,1.57c0,0.51.16,0.69,0.65,0.64a2.7,2.7,0,0,1,3,2.79c0,0.28,0,.55,0,0.9a3.16,3.16,0,0,1,2.91.92,3,3,0,0,1,.56,3,5.21,5.21,0,0,0,.71,0,2.89,2.89,0,0,1,3.11,2,3.59,3.59,0,0,1-1,3.52,5,5,0,0,1-3.94,1.28c-1.32-.16-2.52-1.72-1.87-3A14,14,0,0,0,1068.51,173.18Z" transform="translate(-1034.07 -95)" style="fill:#fff"/><path d="M1073.55,107.78l-8,1.68-0.45-2.11,2.55-.54-1.35-6.39-2.55.54-0.42-2a8.7,8.7,0,0,0,1.1-.31,3,3,0,0,0,.83-0.42,1.54,1.54,0,0,0,.5-0.65,1.7,1.7,0,0,0,.08-0.87l2.65-.56,2.11,10,2.49-.53Z" transform="translate(-1034.07 -95)"/><path d="M1084.09,101.35a13.48,13.48,0,0,1-.21,2.81,5.43,5.43,0,0,1-.79,2,3.56,3.56,0,0,1-1.45,1.24,6.16,6.16,0,0,1-4.42.07,3.57,3.57,0,0,1-1.5-1.21,5.54,5.54,0,0,1-.85-2,15.47,15.47,0,0,1-.09-5.59,5.46,5.46,0,0,1,.81-2,3.55,3.55,0,0,1,1.47-1.25,5.37,5.37,0,0,1,2.17-.44,5.23,5.23,0,0,1,2.24.38,3.63,3.63,0,0,1,1.49,1.23,5.5,5.5,0,0,1,.85,2A13.35,13.35,0,0,1,1084.09,101.35Zm-3.11.05a9.48,9.48,0,0,0-.43-3.21,1.34,1.34,0,0,0-2.54,0,9.46,9.46,0,0,0-.33,3.24,9.41,9.41,0,0,0,.43,3.19,1.33,1.33,0,0,0,2.54,0A9.49,9.49,0,0,0,1081,101.4Z" transform="translate(-1034.07 -95)"/><path d="M1095.44,103.47a13.51,13.51,0,0,1-.81,2.7,5.45,5.45,0,0,1-1.2,1.81,3.56,3.56,0,0,1-1.68.9,6.16,6.16,0,0,1-4.34-.87,3.58,3.58,0,0,1-1.21-1.5,5.54,5.54,0,0,1-.41-2.13,15.45,15.45,0,0,1,1.1-5.48,5.45,5.45,0,0,1,1.22-1.79,3.56,3.56,0,0,1,1.71-.91,5.37,5.37,0,0,1,2.21,0,5.24,5.24,0,0,1,2.1.85,3.62,3.62,0,0,1,1.19,1.51,5.48,5.48,0,0,1,.41,2.13A13.39,13.39,0,0,1,1095.44,103.47Zm-3.05-.61a9.48,9.48,0,0,0,.26-3.23,1.34,1.34,0,0,0-2.49-.5,13.73,13.73,0,0,0-1.27,6.31,1.33,1.33,0,0,0,2.49.5A9.48,9.48,0,0,0,1092.39,102.86Z" transform="translate(-1034.07 -95)"/><path d="M1105.58,105a4.4,4.4,0,0,1-2.26,2.25,3.43,3.43,0,0,1-2.82-.38,3.49,3.49,0,0,1-1.91-2.16,5.45,5.45,0,0,1,2.9-5.33,3.49,3.49,0,0,1,2.84.4,3.41,3.41,0,0,1,1.89,2.16A4.39,4.39,0,0,1,1105.58,105Zm7.44-.25-11.57,7.8-1.93-1,11.57-7.8Zm-9.53-.85a9.21,9.21,0,0,0,.41-0.86,2.34,2.34,0,0,0,.19-0.72,1,1,0,0,0-.12-0.56,1.17,1.17,0,0,0-.47-0.42,1.14,1.14,0,0,0-.62-0.17,1,1,0,0,0-.53.22,2.33,2.33,0,0,0-.5.55,9,9,0,0,0-.5.82q-0.29.54-.43,0.87a2.14,2.14,0,0,0-.17.7,1,1,0,0,0,.11.57,1.35,1.35,0,0,0,1.09.59,1,1,0,0,0,.54-0.22,2.58,2.58,0,0,0,.47-0.52A8,8,0,0,0,1103.49,103.92Zm9.83,10.74a4.4,4.4,0,0,1-2.26,2.25,3.43,3.43,0,0,1-2.82-.38,3.49,3.49,0,0,1-1.91-2.16,5.45,5.45,0,0,1,2.9-5.33,3.49,3.49,0,0,1,2.84.4,3.41,3.41,0,0,1,1.89,2.16A4.39,4.39,0,0,1,1113.32,114.65Zm-2.09-1.1a8.89,8.89,0,0,0,.41-0.86,2.31,2.31,0,0,0,.19-0.72,1,1,0,0,0-.12-0.56,1.18,1.18,0,0,0-.47-0.42,1.14,1.14,0,0,0-.62-0.17,1,1,0,0,0-.53.22,2.33,2.33,0,0,0-.5.55,8.85,8.85,0,0,0-.5.82q-0.29.54-.43,0.87a2.14,2.14,0,0,0-.17.7,1,1,0,0,0,.11.57,1.17,1.17,0,0,0,.48.43,1.14,1.14,0,0,0,.61.16,1,1,0,0,0,.54-0.22,2.53,2.53,0,0,0,.47-0.52A8,8,0,0,0,1111.23,113.55Z" transform="translate(-1034.07 -95)"/></svg>