<svg id="51297957-f4d8-4ded-99d3-afefba2ee463" data-name="Детали" xmlns="http://www.w3.org/2000/svg" viewBox="0 0 91.49 108.32"><title>5</title><path d="M1238.33,201.32a43.74,43.74,0,1,1,43.74-43.74A43.79,43.79,0,0,1,1238.33,201.32Z" transform="translate(-1192.58 -95)" style="fill:#333"/><path d="M1238.33,115.83a41.74,41.74,0,1,1-41.74,41.74,41.74,41.74,0,0,1,41.74-41.74m0-4a45.74,45.74,0,1,0,45.74,45.74,45.8,45.8,0,0,0-45.74-45.74h0Z" transform="translate(-1192.58 -95)" style="fill:#f60"/><path d="M1259.49,155.07l-1-.17a21.55,21.55,0,0,1-7.13-2.63,10.11,10.11,0,0,1-2.57-2.15,5.72,5.72,0,0,1-1.13-5.66l0.06-.2a0.3,0.3,0,0,0,0-.06l-0.22.24a40.55,40.55,0,0,1-6.69,5.93,27.91,27.91,0,0,1-12.27,4.82c-1.73.24-3.47,0.41-5.21,0.61a12.37,12.37,0,0,0-2.68.58,4.5,4.5,0,0,0-2.88,2.89,0.42,0.42,0,0,1-.13.21c0-.63,0-1.26,0-1.89a23.77,23.77,0,0,1,1.43-8.67,18.42,18.42,0,0,1,9.76-10.5,22.34,22.34,0,0,1,8.49-2.05,21,21,0,0,1,14.59,4.63,19.87,19.87,0,0,1,7.24,11.64C1259.26,153.41,1259.35,154.21,1259.49,155.07Z" transform="translate(-1192.58 -95)" style="fill:#fff"/><path d="M1259.34,166c0.16-.43.31-0.83,0.46-1.25a22.47,22.47,0,0,0,1-10.45,22.71,22.71,0,0,0-15.54-18.59,22.46,22.46,0,0,0-9.82-.91,22.72,22.72,0,0,0-10.3,41.07,22.49,22.49,0,0,0,9.9,4,0.5,0.5,0,0,0,.46-0.14,1.88,1.88,0,1,1,0,2.8,0.81,0.81,0,0,0-.4-0.19,25.2,25.2,0,0,1-20.29-16,0.58,0.58,0,0,0-.41-0.39A4.67,4.67,0,0,1,1212,164a9.44,9.44,0,0,1-1.56-4.09,12,12,0,0,1,.68-6.37,6.6,6.6,0,0,1,1.61-2.46,8.65,8.65,0,0,1,1.26-.89,0.6,0.6,0,0,0,.29-0.36,24.38,24.38,0,0,1,4.39-8.23,24.68,24.68,0,0,1,15.47-9.07,25.11,25.11,0,0,1,28.12,17.17,1.14,1.14,0,0,0,.61.74,5.43,5.43,0,0,1,2.24,2.44,11.08,11.08,0,0,1,1.15,6.25,9.23,9.23,0,0,1-1.6,4.61,5.26,5.26,0,0,1-5.16,2.29Z" transform="translate(-1192.58 -95)" style="fill:#fff"/><path d="M1250.34,160.59a4.11,4.11,0,0,1-8.17.78,4.24,4.24,0,0,1,3-4.87,4.12,4.12,0,0,1,5.14,3.39C1250.3,160.12,1250.32,160.36,1250.34,160.59Z" transform="translate(-1192.58 -95)" style="fill:#fff"/><path d="M1234.31,160.61a4.11,4.11,0,0,1-8.18.71,4.24,4.24,0,0,1,2.94-4.81,4.12,4.12,0,0,1,5.16,3.33C1234.27,160.09,1234.28,160.35,1234.31,160.61Z" transform="translate(-1192.58 -95)" style="fill:#fff"/><path d="M1232.74,171.14a13.06,13.06,0,0,0,11.51-.1,2.25,2.25,0,0,1,.18,1.55,4.09,4.09,0,0,1-1.88,2.57,7,7,0,0,1-5,1,6.58,6.58,0,0,1-3.89-1.93,3.41,3.41,0,0,1-1.07-2.11A1.64,1.64,0,0,1,1232.74,171.14Z" transform="translate(-1192.58 -95)" style="fill:#fff"/><path d="M1232,107.78l-8,1.68-0.45-2.11,2.55-.54-1.35-6.39-2.55.54-0.42-2a8.66,8.66,0,0,0,1.1-.31,3,3,0,0,0,.84-0.42,1.54,1.54,0,0,0,.49-0.65,1.7,1.7,0,0,0,.08-0.87l2.65-.56,2.11,10,2.49-.53Z" transform="translate(-1192.58 -95)"/><path d="M1242.51,101.35a13.54,13.54,0,0,1-.21,2.81,5.45,5.45,0,0,1-.79,2,3.56,3.56,0,0,1-1.45,1.24,6.16,6.16,0,0,1-4.42.07,3.57,3.57,0,0,1-1.5-1.21,5.52,5.52,0,0,1-.85-2,15.41,15.41,0,0,1-.09-5.59,5.46,5.46,0,0,1,.81-2,3.56,3.56,0,0,1,1.47-1.25,5.37,5.37,0,0,1,2.17-.44,5.24,5.24,0,0,1,2.24.38,3.64,3.64,0,0,1,1.49,1.23,5.48,5.48,0,0,1,.85,2A13.34,13.34,0,0,1,1242.51,101.35Zm-3.11.05a9.51,9.51,0,0,0-.43-3.21,1.34,1.34,0,0,0-2.54,0,9.45,9.45,0,0,0-.33,3.24,9.41,9.41,0,0,0,.43,3.19,1.33,1.33,0,0,0,2.54,0A9.48,9.48,0,0,0,1239.4,101.4Z" transform="translate(-1192.58 -95)"/><path d="M1253.86,103.47a13.58,13.58,0,0,1-.81,2.7,5.46,5.46,0,0,1-1.2,1.81,3.56,3.56,0,0,1-1.68.9,6.16,6.16,0,0,1-4.34-.87,3.57,3.57,0,0,1-1.21-1.5,5.52,5.52,0,0,1-.41-2.13,15.45,15.45,0,0,1,1.1-5.48,5.47,5.47,0,0,1,1.22-1.79,3.56,3.56,0,0,1,1.71-.91,5.37,5.37,0,0,1,2.21,0,5.24,5.24,0,0,1,2.1.85,3.64,3.64,0,0,1,1.19,1.51,5.5,5.5,0,0,1,.41,2.13A13.4,13.4,0,0,1,1253.86,103.47Zm-3.05-.61a9.48,9.48,0,0,0,.27-3.23,1.34,1.34,0,0,0-2.49-.5,13.75,13.75,0,0,0-1.27,6.31,1.33,1.33,0,0,0,2.49.5A9.48,9.48,0,0,0,1250.81,102.86Z" transform="translate(-1192.58 -95)"/><path d="M1264,105a4.4,4.4,0,0,1-2.26,2.25,3.43,3.43,0,0,1-2.82-.38,3.49,3.49,0,0,1-1.91-2.16,5.45,5.45,0,0,1,2.9-5.33,3.49,3.49,0,0,1,2.84.4,3.42,3.42,0,0,1,1.89,2.16A4.39,4.39,0,0,1,1264,105Zm7.44-.25-11.57,7.8-1.93-1,11.57-7.8Zm-9.53-.85a9.44,9.44,0,0,0,.41-0.86,2.34,2.34,0,0,0,.19-0.72,1,1,0,0,0-.12-0.56,1.17,1.17,0,0,0-.47-0.42,1.14,1.14,0,0,0-.62-0.17,1,1,0,0,0-.53.22,2.33,2.33,0,0,0-.5.55,8.77,8.77,0,0,0-.5.82q-0.29.54-.43,0.87a2.17,2.17,0,0,0-.17.7,1,1,0,0,0,.11.57,1.35,1.35,0,0,0,1.09.59,1,1,0,0,0,.54-0.22,2.55,2.55,0,0,0,.47-0.52A8,8,0,0,0,1261.92,103.92Zm9.83,10.74a4.4,4.4,0,0,1-2.26,2.25,3.43,3.43,0,0,1-2.82-.38,3.49,3.49,0,0,1-1.91-2.16,5.45,5.45,0,0,1,2.9-5.33,3.49,3.49,0,0,1,2.84.4,3.42,3.42,0,0,1,1.89,2.16A4.39,4.39,0,0,1,1271.75,114.65Zm-2.09-1.1a9.14,9.14,0,0,0,.41-0.86,2.37,2.37,0,0,0,.19-0.72,1,1,0,0,0-.12-0.56,1.17,1.17,0,0,0-.47-0.42,1.14,1.14,0,0,0-.62-0.17,1,1,0,0,0-.53.22,2.33,2.33,0,0,0-.5.55,8.64,8.64,0,0,0-.5.82q-0.29.54-.43,0.87a2.17,2.17,0,0,0-.17.7,0.94,0.94,0,0,0,.11.57,1.16,1.16,0,0,0,.48.43,1.14,1.14,0,0,0,.61.16,1,1,0,0,0,.54-0.22,2.53,2.53,0,0,0,.47-0.52A7.83,7.83,0,0,0,1269.65,113.55Z" transform="translate(-1192.58 -95)"/></svg>