<svg id="61ad0e0f-566a-4da2-b0dd-cf96846988a1" data-name="Детали" xmlns="http://www.w3.org/2000/svg" viewBox="0 0 91.49 108.32"><title>6</title><path d="M1396.84,201.32a43.74,43.74,0,1,1,43.75-43.74A43.79,43.79,0,0,1,1396.84,201.32Z" transform="translate(-1351.1 -95)" style="fill:#333"/><path d="M1396.84,115.83a41.74,41.74,0,1,1-41.74,41.74,41.74,41.74,0,0,1,41.74-41.74m0-4a45.74,45.74,0,1,0,45.74,45.74,45.8,45.8,0,0,0-45.74-45.74h0Z" transform="translate(-1351.1 -95)" style="fill:#f60"/><path d="M1394.81,174.65a7.15,7.15,0,0,0-6.42-6.07,6.93,6.93,0,0,0-5,1.51,7.21,7.21,0,0,0-2.63,4.54c-1.4,0-2.76,0-4.13,0a1.87,1.87,0,0,1-1.77-1.77,6.81,6.81,0,0,1,0-.76c0-4.81,0-9.62,0-14.43a1.89,1.89,0,0,0-.54-1.39,12.32,12.32,0,0,1-3.22-9.84,12.69,12.69,0,0,1,9.83-11.16,12.83,12.83,0,0,1,14.34,6.75,14.12,14.12,0,0,1,1.32,4.71c0.61,0,1.21,0,1.81,0a2.13,2.13,0,0,1,2.36,2.36q-0.05,11.59,0,23.19a2.16,2.16,0,0,1-2.41,2.38C1397.16,174.6,1396,174.65,1394.81,174.65Zm-11-16.89a10,10,0,1,0-10-10.07A10.06,10.06,0,0,0,1383.77,157.76Z" transform="translate(-1351.1 -95)" style="fill:#fff"/><path d="M1404.68,174.6a1.93,1.93,0,0,1-1.91-1.71,3.81,3.81,0,0,1,0-.56q0-9.64,0-19.29a2,2,0,0,1,.79-1.87,2.4,2.4,0,0,1,1.21-.41c3,0,6,0,9,0a2.43,2.43,0,0,1,1.89.82c0.47,0.53,1,1.05,1.38,1.61,1.29,1.69,2.55,3.4,3.83,5.1a8.43,8.43,0,0,1,1.84,5.44c-0.08,2.87,0,5.74,0,8.61a2.06,2.06,0,0,1-2.34,2.33h-1.59a7.2,7.2,0,0,0-3.2-5,7.09,7.09,0,0,0-4.43-1.11C1408,168.74,1405.62,171,1404.68,174.6Zm14.76-11.92a6.79,6.79,0,0,0-.5-1.11q-2.24-3.19-4.51-6.34a1.28,1.28,0,0,0-1.13-.55c-1.13,0-2.26,0-3.39,0h-1.16v8h10.7Z" transform="translate(-1351.1 -95)" style="fill:#fff"/><path d="M1387.76,180.23a4.58,4.58,0,1,1,4.62-4.59A4.58,4.58,0,0,1,1387.76,180.23Z" transform="translate(-1351.1 -95)" style="fill:#fff"/><path d="M1411.72,180.23a4.59,4.59,0,0,1,0-9.18A4.59,4.59,0,0,1,1411.72,180.23Z" transform="translate(-1351.1 -95)" style="fill:#fff"/><path d="M1383.76,139.83a0.72,0.72,0,0,1,.72.8c0.07,1.67.13,3.34,0.22,5a1.74,1.74,0,0,0,.3.68,3.53,3.53,0,0,1,.55.93,2.28,2.28,0,0,0,.6,1.13q1.15,1.32,2.28,2.65a0.93,0.93,0,0,1-1.32,1.31c-0.93-.81-1.85-1.63-2.79-2.42a1.49,1.49,0,0,0-.7-0.32,1.83,1.83,0,0,1-1.61-1.28,1.86,1.86,0,0,1,.56-2,1.15,1.15,0,0,0,.27-0.71c0.1-1.63.16-3.27,0.24-4.9A0.74,0.74,0,0,1,1383.76,139.83Z" transform="translate(-1351.1 -95)" style="fill:#fff"/><path d="M1390.4,107.78l-8,1.68-0.45-2.11,2.55-.54-1.35-6.39-2.55.54-0.42-2a8.7,8.7,0,0,0,1.1-.31,3,3,0,0,0,.83-0.42,1.53,1.53,0,0,0,.5-0.65,1.7,1.7,0,0,0,.08-0.87l2.65-.56,2.11,10,2.49-.53Z" transform="translate(-1351.1 -95)"/><path d="M1400.94,101.35a13.47,13.47,0,0,1-.21,2.81,5.43,5.43,0,0,1-.79,2,3.55,3.55,0,0,1-1.45,1.24,6.16,6.16,0,0,1-4.42.07,3.57,3.57,0,0,1-1.5-1.21,5.54,5.54,0,0,1-.86-2,15.44,15.44,0,0,1-.09-5.59,5.46,5.46,0,0,1,.81-2,3.56,3.56,0,0,1,1.47-1.25,5.38,5.38,0,0,1,2.17-.44,5.24,5.24,0,0,1,2.24.38,3.64,3.64,0,0,1,1.48,1.23,5.5,5.5,0,0,1,.85,2A13.41,13.41,0,0,1,1400.94,101.35Zm-3.11.05a9.48,9.48,0,0,0-.43-3.21,1.34,1.34,0,0,0-2.54,0,9.43,9.43,0,0,0-.33,3.24,9.41,9.41,0,0,0,.43,3.19,1.33,1.33,0,0,0,2.54,0A9.47,9.47,0,0,0,1397.83,101.4Z" transform="translate(-1351.1 -95)"/><path d="M1412.29,103.47a13.51,13.51,0,0,1-.81,2.7,5.44,5.44,0,0,1-1.2,1.81,3.56,3.56,0,0,1-1.68.9,6.16,6.16,0,0,1-4.34-.87,3.57,3.57,0,0,1-1.21-1.5,5.52,5.52,0,0,1-.41-2.13,15.4,15.4,0,0,1,1.1-5.48A5.45,5.45,0,0,1,1405,97.1a3.56,3.56,0,0,1,1.71-.91,5.37,5.37,0,0,1,2.21,0,5.23,5.23,0,0,1,2.1.85,3.62,3.62,0,0,1,1.19,1.51,5.5,5.5,0,0,1,.41,2.13A13.4,13.4,0,0,1,1412.29,103.47Zm-3.05-.61a9.48,9.48,0,0,0,.26-3.23,1.34,1.34,0,0,0-2.49-.5,13.76,13.76,0,0,0-1.27,6.31,1.33,1.33,0,0,0,2.49.5A9.5,9.5,0,0,0,1409.24,102.86Z" transform="translate(-1351.1 -95)"/><path d="M1422.43,105a4.4,4.4,0,0,1-2.26,2.25,3.43,3.43,0,0,1-2.82-.38,3.49,3.49,0,0,1-1.91-2.16,5.45,5.45,0,0,1,2.9-5.33,3.49,3.49,0,0,1,2.84.4,3.41,3.41,0,0,1,1.89,2.16A4.39,4.39,0,0,1,1422.43,105Zm7.44-.25-11.57,7.8-1.93-1,11.57-7.8Zm-9.53-.85a9.21,9.21,0,0,0,.41-0.86,2.34,2.34,0,0,0,.19-0.72,1,1,0,0,0-.12-0.56,1.18,1.18,0,0,0-.47-0.42,1.14,1.14,0,0,0-.62-0.17,1,1,0,0,0-.53.22,2.35,2.35,0,0,0-.5.55,9,9,0,0,0-.5.82q-0.29.54-.43,0.87a2.14,2.14,0,0,0-.17.7,1,1,0,0,0,.11.57,1.35,1.35,0,0,0,1.09.59,1,1,0,0,0,.54-0.22,2.55,2.55,0,0,0,.47-0.52A7.82,7.82,0,0,0,1420.34,103.92Zm9.83,10.74a4.41,4.41,0,0,1-2.26,2.25,3.43,3.43,0,0,1-2.82-.38,3.49,3.49,0,0,1-1.91-2.16,4.37,4.37,0,0,1,.64-3.1,4.32,4.32,0,0,1,2.26-2.23,3.49,3.49,0,0,1,2.84.4,3.42,3.42,0,0,1,1.89,2.16A4.39,4.39,0,0,1,1430.17,114.65Zm-2.09-1.1a8.89,8.89,0,0,0,.41-0.86,2.35,2.35,0,0,0,.19-0.72,1,1,0,0,0-.12-0.56,1.18,1.18,0,0,0-.47-0.42,1.14,1.14,0,0,0-.62-0.17,1,1,0,0,0-.53.22,2.31,2.31,0,0,0-.5.55,8.64,8.64,0,0,0-.5.82q-0.29.54-.44,0.87a2.19,2.19,0,0,0-.17.7,1,1,0,0,0,.11.57,1.17,1.17,0,0,0,.48.43,1.14,1.14,0,0,0,.61.16,1,1,0,0,0,.54-0.22,2.56,2.56,0,0,0,.47-0.52A8.15,8.15,0,0,0,1428.08,113.55Z" transform="translate(-1351.1 -95)"/></svg>