<svg id="0bb1fb96-45a8-4f8c-8c4d-ea91bb7b6336" data-name="Детали" xmlns="http://www.w3.org/2000/svg" viewBox="0 0 31.33 24.64"><title>9</title><path d="M1702.93,37.91c-2.78,0-5.55,0-8.33,0a1.81,1.81,0,0,1-1.88-1.24c-2.18-5.21-4.4-10.41-6.61-15.61a1.2,1.2,0,0,1,.24-1.58,1.07,1.07,0,0,1,1.37-.06,1.92,1.92,0,0,1,.55.76q3.15,7.38,6.26,14.77a0.89,0.89,0,0,0,1,.65c5.29,0,10.59,0,15.88,0a1.18,1.18,0,0,1,1.42,1.12,1.2,1.2,0,0,1-1.45,1.18h-8.46Z" transform="translate(-1685.93 -19.22)" style="fill:#333"/><path d="M1717.26,23.09c-0.35.79-.63,1.51-1,2.18a0.9,0.9,0,0,1-.68.27c-3.42,0-6.84,0-10.27,0-4.11,0-8.22,0-12.33,0a0.8,0.8,0,0,1-.9-0.6c-0.22-.62-0.52-1.21-0.82-1.88h26Z" transform="translate(-1685.93 -19.22)" style="fill:#333"/><path d="M1715.39,27.29c-0.36.81-.68,1.58-1.06,2.31a0.82,0.82,0,0,1-.61.19h-7.49c-3.79,0-7.57,0-11.36,0a0.78,0.78,0,0,1-.91-0.57c-0.23-.64-0.54-1.26-0.85-1.95h22.27Z" transform="translate(-1685.93 -19.22)" style="fill:#333"/><path d="M1713.52,31.5c-0.35.8-.66,1.53-1,2.23a0.67,0.67,0,0,1-.51.25q-7.74,0-15.48,0a0.66,0.66,0,0,1-.51-0.26c-0.35-.71-0.65-1.44-1-2.23h18.52Z" transform="translate(-1685.93 -19.22)" style="fill:#333"/><path d="M1709.29,39.33a2.26,2.26,0,0,1,2.3,2.27,2.32,2.32,0,0,1-2.29,2.25,2.3,2.3,0,0,1-2.32-2.27A2.24,2.24,0,0,1,1709.29,39.33Z" transform="translate(-1685.93 -19.22)" style="fill:#333"/><path d="M1694,41.56a2.29,2.29,0,0,1,4.57,0A2.29,2.29,0,1,1,1694,41.56Z" transform="translate(-1685.93 -19.22)" style="fill:#333"/></svg>