<?xml version="1.0" encoding="utf-8"?>
<!-- Generator: Adobe Illustrator 20.1.0, SVG Export Plug-In . SVG Version: 6.00 Build 0)  -->
<svg version="1.1" id="_x30_bb1fb96-45a8-4f8c-8c4d-ea91bb7b6336"
	 xmlns="http://www.w3.org/2000/svg" xmlns:xlink="http://www.w3.org/1999/xlink" x="0px" y="0px" viewBox="0 0 31.3 24.6"
	 style="enable-background:new 0 0 31.3 24.6;" xml:space="preserve">
<style type="text/css">
	.st0{fill:#FFFFFF;}
</style>
<title>9</title>
<path class="st0" d="M17,18.7c-2.8,0-5.6,0-8.3,0c-0.8,0.1-1.6-0.4-1.9-1.2C4.6,12.2,2.4,7,0.2,1.8c-0.3-0.5-0.2-1.2,0.2-1.6
	c0.4-0.3,1-0.4,1.4-0.1C2,0.4,2.2,0.7,2.3,1c2.1,4.9,4.2,9.8,6.3,14.8c0.1,0.4,0.5,0.7,1,0.7c5.3,0,10.6,0,15.9,0
	c0.6-0.1,1.3,0.3,1.4,0.9c0,0.1,0,0.1,0,0.2c0,0.7-0.5,1.2-1.2,1.2c-0.1,0-0.2,0-0.3,0L17,18.7L17,18.7z"/>
<path class="st0" d="M31.3,3.9c-0.3,0.8-0.6,1.5-1,2.2c-0.2,0.2-0.4,0.3-0.7,0.3c-3.4,0-6.8,0-10.3,0c-4.1,0-8.2,0-12.3,0
	C6.6,6.4,6.2,6.1,6.1,5.7C5.9,5.1,5.6,4.5,5.3,3.8L31.3,3.9L31.3,3.9z"/>
<path class="st0" d="M29.5,8.1c-0.4,0.8-0.7,1.6-1.1,2.3c-0.2,0.1-0.4,0.2-0.6,0.2h-7.5c-3.8,0-7.6,0-11.4,0C8.5,10.7,8.1,10.4,8,10
	c-0.2-0.6-0.5-1.3-0.8-2L29.5,8.1L29.5,8.1z"/>
<path class="st0" d="M27.6,12.3c-0.3,0.8-0.7,1.5-1,2.2c-0.1,0.2-0.3,0.2-0.5,0.3c-5.2,0-10.3,0-15.5,0c-0.2,0-0.4-0.1-0.5-0.3
	c-0.3-0.7-0.7-1.4-1-2.2L27.6,12.3L27.6,12.3z"/>
<path class="st0" d="M23.4,20.1c1.2,0,2.3,1,2.3,2.2c0,0,0,0,0,0.1c0,1.2-1,2.2-2.3,2.3c-1.3,0-2.3-1-2.3-2.3
	C21,21.1,22,20.1,23.4,20.1C23.3,20.1,23.3,20.1,23.4,20.1z"/>
<path class="st0" d="M8.1,22.3c0.1-1.3,1.2-2.2,2.4-2.1c1.1,0.1,2.1,1,2.1,2.1c0.1,1.3-0.9,2.4-2.1,2.4c-1.3,0.1-2.4-0.9-2.4-2.1
	C8.1,22.5,8.1,22.4,8.1,22.3z"/>
</svg>
