<?xml version="1.0" encoding="utf-8"?>
<!-- Generator: Adobe Illustrator 19.2.1, SVG Export Plug-In . SVG Version: 6.00 Build 0)  -->
<svg version="1.1" id="a5902d55-e377-4aa8-942f-edb388caf069"
	 xmlns="http://www.w3.org/2000/svg" xmlns:xlink="http://www.w3.org/1999/xlink" x="0px" y="0px" viewBox="0 0 65.8 58.5"
	 style="enable-background:new 0 0 65.8 58.5;" xml:space="preserve">
<style type="text/css">
	.st0{fill:#FFFFFF;}
	.st1{fill:#FFFDFD;}
</style>
<title>11</title>
<path class="st0" d="M9,44.5c0-4,0-8.1,0-12.1c0-0.6,0.2-1.1,0.7-1.5c4.1-3.4,8.3-6.9,12.4-10.4c3.1-2.6,6.1-5.1,9.1-7.7
	c0.5-0.4,1.1-0.8,1.5-1.2c0.2-0.3,0.7-0.4,1.1-0.2c0.1,0.1,0.1,0.1,0.2,0.2c2.4,2.1,4.8,4.2,7.2,6.4l12.5,11.2
	c0.7,0.5,1.4,1.1,2,1.7c0.4,0.4,0.6,1,0.7,1.6c0,7.8,0.1,15.7,0,23.5c0,1.8-0.2,2.4-2.4,2.5c-4.9,0-9.8,0-14.6,0
	c-0.5,0.1-0.9-0.2-1-0.6c0-0.1,0-0.2,0-0.4c0-4.1,0.1-8.2,0-12.3c0-0.7-0.2-1.3-0.6-1.8c-0.4-0.4-0.9-0.7-1.4-0.7
	c-2.6-0.1-5.1,0-7.6,0c-0.8-0.1-1.5,0.6-1.5,1.4c0,0,0,0,0,0C27,44.7,27,45.3,27,45.9c0,3.9-0.1,7.8,0,11.6c0.1,0.4-0.1,0.9-0.6,1
	c-0.1,0-0.3,0-0.4,0c-5,0-10,0-15,0c-1.5,0-1.9-0.3-2-1.9C8.9,52.6,9,48.6,9,44.5z"/>
<path class="st1" d="M33.5,0l3.6,3.2l11.3,10.3l14.8,13.4l2.2,2c0.4,0.4,0.3,0.6,0,1c-1.4,1.3-3.2,1.5-5.2,0.2
	c-1.5-1-2.9-2.2-4.3-3.4c-3.8-3.4-7.6-6.8-11.4-10.2c-2.7-2.5-5.4-4.9-8.2-7.4c-0.8-0.7-1.6-1.4-2.3-2.1c-0.2-0.3-0.6-0.3-0.9-0.1
	C33.1,7,33,7,33,7.1c-4.8,4-9.5,8-14.3,12C14.8,22.4,11,25.7,7.1,29c-1.2,1-2.4,2.1-4.2,2.1c-1.2,0-2.3-0.6-2.8-1.7L33.5,0z"/>
<path class="st0" d="M58,19.9c-0.7-0.5-1.3-0.9-1.9-1.4c-1.3-1.1-2.7-2.3-4-3.5c-0.3-0.3-0.4-0.6-0.5-1c0-2.2,0-4.3,0-6.5
	c-0.1-0.4,0.1-0.8,0.5-0.9c0.1,0,0.2,0,0.4,0c1.6,0,3.2,0,4.8,0c0.3-0.1,0.7,0.1,0.8,0.5c0,0.1,0,0.2,0,0.2c0,4.1,0,8.1,0,12.2
	C58.1,19.6,58.1,19.7,58,19.9z"/>
</svg>
