<svg id="a5902d55-e377-4aa8-942f-edb388caf069" data-name="Детали" xmlns="http://www.w3.org/2000/svg" viewBox="0 0 65.75 58.53"><title>11</title><path d="M68.71,320.65c0-4,0-8.09,0-12.13a1.77,1.77,0,0,1,.67-1.51q6.22-5.17,12.42-10.36c3.05-2.56,6.07-5.15,9.11-7.72,0.5-.42,1.05-0.77,1.51-1.23a0.77,0.77,0,0,1,1.26,0c2.38,2.13,4.78,4.24,7.16,6.37l12.52,11.23a23.93,23.93,0,0,1,2,1.72,2.64,2.64,0,0,1,.69,1.57c0,7.84.08,15.68,0,23.52,0,1.84-.19,2.43-2.38,2.45-4.87,0-9.75,0-14.62.05a0.84,0.84,0,0,1-1-1c0-4.1.05-8.2,0-12.3a3.39,3.39,0,0,0-.57-1.83,2,2,0,0,0-1.4-.71c-2.55-.07-5.1-0.05-7.64,0a1.46,1.46,0,0,0-1.55,1.41,13.72,13.72,0,0,0-.17,1.89c0,3.88-.05,7.76,0,11.63a0.81,0.81,0,0,1-1,1c-5,0-10,0-15,0-1.51,0-1.95-.34-2-1.88C68.68,328.74,68.71,324.7,68.71,320.65Z" transform="translate(-59.75 -276.15)" style="fill:#979797"/><path d="M93.25,276.15l3.55,3.23,11.35,10.26L123,303.09l2.24,2.05c0.4,0.36.34,0.65,0,1-1.38,1.33-3.19,1.52-5.24.19a37.13,37.13,0,0,1-4.26-3.42c-3.84-3.38-7.64-6.8-11.45-10.22-2.73-2.45-5.45-4.92-8.17-7.39-0.77-.69-1.56-1.36-2.31-2.06a0.67,0.67,0,0,0-1.06,0q-7.13,6-14.28,12.05c-3.88,3.28-7.75,6.6-11.63,9.88-1.22,1-2.42,2.06-4.17,2.09a3.24,3.24,0,0,1-2.85-1.66Z" transform="translate(-59.75 -276.15)" style="fill:#979797"/><path d="M117.78,296c-0.66-.5-1.29-0.93-1.86-1.41-1.34-1.15-2.68-2.31-4-3.5a1.52,1.52,0,0,1-.47-1c0-2.16,0-4.32,0-6.48a0.71,0.71,0,0,1,.88-0.85c1.6,0,3.21,0,4.81,0a0.64,0.64,0,0,1,.79.7q0,6.11,0,12.21A1.43,1.43,0,0,1,117.78,296Z" transform="translate(-59.75 -276.15)" style="fill:#979797"/></svg>