<?xml version="1.0" encoding="utf-8"?>
<!-- Generator: Adobe Illustrator 20.1.0, SVG Export Plug-In . SVG Version: 6.00 Build 0)  -->
<svg version="1.1" id="d4e6e8da-eb29-4a36-a1f5-55811c6db391"
	 xmlns="http://www.w3.org/2000/svg" xmlns:xlink="http://www.w3.org/1999/xlink" x="0px" y="0px" viewBox="0 0 370.6 127"
	 style="enable-background:new 0 0 370.6 127;" xml:space="preserve">
<style type="text/css">
	.st0{fill:#FFFFFF;}
	.st1{fill:#222321;}
	.st2{fill:#FF6600;}
	.st3{fill:#000103;}
</style>
<title>1</title>
<g>
	<path class="st0" d="M10,1h350.7c5,0,9,4,9,9v71.9c0,5-4,9-9,9H10c-5,0-9-4-9-9V10C1,5,5,1,10,1z"/>
	<path class="st1" d="M233.4,1.2L191,90.3h167.3c7.6,1.5,11.1-3.3,11.7-12.3l-1-69.6c-0.4-6.2-6.4-7.2-13.1-7.6L233.4,1.2z"/>
	<path class="st2" d="M10,0h350.7c5.5,0,10,4.5,10,10v71.9c0,5.5-4.5,10-10,10H10c-5.5,0-10-4.5-10-10V10C0,4.4,4.4,0,10,0L10,0
		L10,0z M10,2c-4.4,0-8,3.6-8,8v71.9c0,4.4,3.6,8,8,8h350.7c4.4,0,8-3.6,8-8V10c0-4.4-3.6-8-8-8L10,2L10,2z"/>
	<path class="st2" d="M20.4,69.5c-0.9-1.6-1.2-3.5-0.9-5.3l0,0c0.1-1,0.3-2,0.6-2.9l8.4-33.8h4L27,10.6L13,27.5h3.8l-6.6,26.6
		c-1.3,5.1-2,8.4-2.2,10c-0.2,1.5,0,3.1,0.7,4.5c0.8,1.6,2.1,2.8,3.8,3.5c2.1,0.9,4.4,1.4,6.8,1.3c2.2,0,4.5-0.3,6.6-1.1
		c0.2-0.1,0.4-0.2,0.7-0.3C24.3,72,21.8,71.6,20.4,69.5z"/>
	<path class="st3" d="M58.4,31.3l-1,3.3c1.2-1.2,2.5-2.2,4-2.9c1.3-0.6,2.7-1,4.2-1c1.5-0.1,3,0.4,4.2,1.4c1,0.8,1.5,2,1.6,3.2
		c-0.1,2.1-0.5,4.2-1.1,6.2L66.3,57c-0.5,2.5-1.3,4.9-2.4,7.1c-0.8,1.4-1.9,2.6-3.3,3.4c-1.4,0.8-3.1,1.3-4.8,1.3
		c-1.3,0-2.5-0.3-3.6-1c-1.1-0.7-2-1.7-2.5-2.9l-2.1,8.4H36.5l10.5-42.1L58.4,31.3L58.4,31.3z M58.9,42c0.4-1.3,0.7-2.7,0.8-4.1
		c0-0.5-0.5-0.7-1.2-0.7c-0.7,0-1.3,0.3-1.6,0.8c-0.6,1.3-1,2.6-1.3,4l-3.8,15.3C51.3,58.6,51,60,51,61.4c0.1,0.5,0.6,0.9,1.1,0.9
		c0,0,0.1,0,0.1,0c0.6,0.1,1.2-0.2,1.5-0.8c0.5-1.2,0.9-2.4,1.2-3.7L58.9,42z"/>
	<path class="st3" d="M102,31.3l-7.1,28.4c-0.6,2.5-1.3,5-2.1,7.4c-0.6,1.4-1.6,2.6-2.8,3.6c-1.5,1.3-3.3,2.3-5.2,2.9
		c-2.4,0.7-5,1-7.5,1c-3.6,0-6.3-0.6-8.2-1.8c-1.9-1.2-2.4-3.6-1.6-7.2h10.9c-0.4,1.6,0,2.4,1.2,2.4c0.7,0.1,1.4-0.2,1.9-0.8
		c0.6-1,1-2,1.2-3.1l0.7-2.8c-1.1,0.8-2.3,1.5-3.5,2c-1.1,0.4-2.3,0.7-3.5,0.7c-1.7,0.1-3.3-0.3-4.7-1.2c-1.1-0.7-1.7-1.9-1.9-3.2
		c-0.1-1.9,0.1-3.8,0.7-5.6l3.3-13.4c0.9-3.5,2.1-6,3.8-7.6c1.7-1.6,4-2.4,6.3-2.3c1.3,0,2.5,0.3,3.6,0.9c1,0.6,1.9,1.5,2.4,2.6
		l1.5-2.8L102,31.3L102,31.3z M88.3,41.1c0.3-1,0.5-2.1,0.5-3.2c-0.1-0.5-0.6-0.8-1.1-0.7c-0.6,0-1.2,0.3-1.6,0.8
		c-0.6,1-1,2-1.2,3.1l-3.1,12.4c-0.3,1-0.5,2.1-0.5,3.2c0.1,0.5,0.6,0.8,1.1,0.7c0,0,0,0,0,0c0.7,0,1.3-0.3,1.7-0.9
		c0.6-1.3,1.1-2.6,1.3-4L88.3,41.1z"/>
	<path class="st3" d="M117.2,31.3l-1.6,4.9c2.5-3.5,5.3-5.3,8.5-5.5l-3.2,13c-1.6-0.1-3.2,0.2-4.7,0.8c-1,0.5-1.9,1.3-2.4,2.3
		c-0.8,2.2-1.5,4.5-2,6.9L108,68.2H96.8l9.2-36.9H117.2z"/>
	<path class="st3" d="M132.8,45.6h-10.5l0.6-2.5c0.5-2.3,1.4-4.6,2.6-6.6c1.3-1.8,3-3.2,5-4.1c2.5-1.2,5.3-1.9,8.2-1.8
		c3.8,0,6.5,0.7,8.1,2c1.5,1.2,2.4,3,2.2,4.9c-0.1,2-0.9,6-2.4,12.1L142,68.1H131l0.8-3.3c-0.9,1.2-2.1,2.3-3.4,3
		c-1.3,0.7-2.7,1-4.1,1c-1.8,0.1-3.6-0.5-5-1.6c-1.3-1.1-1.6-3.5-0.7-7.2l0.8-3c0.7-2.8,1.6-4.6,2.7-5.6s3.6-2.2,7.3-3.5
		c4-1.4,6.3-2.4,6.6-2.9c0.6-0.9,1-2,1.1-3.1c0.4-1.2,0.6-2.5,0.5-3.8c-0.1-0.6-0.6-0.9-1.2-0.9c-0.6-0.1-1.2,0.2-1.6,0.7
		c-0.6,1.2-1,2.5-1.2,3.8L132.8,45.6z M135.1,50.6c-2.1,1.3-3.4,2.4-4,3.3c-0.6,1.2-1.1,2.5-1.4,3.8c-0.4,1.2-0.6,2.4-0.5,3.7
		c0.1,0.6,0.7,0.9,1.3,0.8c0.6,0.1,1.2-0.2,1.5-0.6c0.6-1.1,1-2.2,1.2-3.4L135.1,50.6z"/>
	<path class="st3" d="M182.5,23.2l-11.2,45h-11.2l0.7-2.7c-1.2,1-2.6,1.9-4,2.5c-1.2,0.5-2.6,0.8-3.9,0.8c-1.5,0.1-3-0.4-4.2-1.4
		c-1-0.8-1.6-1.9-1.7-3.2c0.1-2,0.4-4,0.9-5.9l4.3-17.3c0.4-2.1,1.1-4.1,2-6c0.8-1.3,1.9-2.4,3.3-3.1c1.5-0.9,3.2-1.4,5-1.4
		c1.3,0,2.5,0.2,3.6,0.8c1,0.5,1.9,1.3,2.6,2.3l2.6-10.4L182.5,23.2L182.5,23.2z M167,40.6c0.3-0.9,0.4-1.8,0.3-2.7
		c-0.2-0.5-0.7-0.8-1.2-0.7c-0.6,0-1.1,0.2-1.5,0.6c-0.5,0.9-0.8,1.8-1,2.8L159,58.6c-0.3,1-0.5,2-0.4,3c0.1,0.5,0.6,0.8,1.1,0.7
		c0.6,0,1.3-0.3,1.6-0.8c0.6-1.2,1.1-2.5,1.3-3.9L167,40.6z"/>
	<path class="st3" d="M205.2,50.4h-14.5l-2,8c-0.3,1-0.5,2.1-0.4,3.2c0.2,0.5,0.7,0.8,1.2,0.7c0.8,0,1.5-0.3,2-1
		c0.6-1.2,1.1-2.4,1.4-3.7l1.2-4.9h10.6l-0.7,2.8c-0.4,1.8-1,3.6-1.7,5.3c-0.8,1.5-1.8,2.8-3,3.9c-1.4,1.4-3,2.4-4.8,3.1
		c-2,0.7-4.2,1.1-6.4,1c-2,0.1-4.1-0.3-6-1c-1.5-0.5-2.7-1.5-3.5-2.8c-0.7-1.2-1.1-2.6-1.1-3.9c0.1-2.1,0.4-4.2,1-6.3L181,44
		c0.6-2.7,1.7-5.3,3.2-7.6c1.4-1.9,3.2-3.4,5.3-4.3c2.3-1,4.7-1.5,7.2-1.5c2.6-0.2,5.1,0.5,7.4,1.8c1.7,1.1,2.8,2.8,3.1,4.8
		c0.3,2,0.1,4.8-0.8,8.3L205.2,50.4z M195.4,44.4l0.7-2.7c0.4-1.2,0.6-2.4,0.6-3.7c0-0.5-0.5-0.9-1-0.8c0,0,0,0,0,0
		c-0.6-0.1-1.2,0.2-1.6,0.7c-0.6,1.2-1,2.5-1.2,3.8l-0.7,2.7L195.4,44.4L195.4,44.4z"/>
	<path class="st0" d="M283.4,45.2h-10.6l1.1-4.3c0.3-1,0.4-2,0.4-3c-0.1-0.5-0.6-0.9-1.1-0.8c-0.6,0-1.1,0.2-1.5,0.7
		c-0.5,1-0.9,2-1.1,3.1l-4.3,17.4c-0.3,1-0.4,2-0.2,3c0.1,0.6,0.6,1,1.2,1c0.7,0,1.4-0.4,1.8-1c0.6-1.2,1.1-2.5,1.4-3.9l1.1-4.4h10
		c-0.5,2.2-1.2,4.5-2,6.6c-0.7,1.7-1.7,3.2-3,4.5c-1.4,1.5-3.1,2.7-5,3.5c-2.1,0.8-4.3,1.2-6.5,1.2c-3.2,0-5.5-0.5-7.1-1.6
		c-1.6-1-2.6-2.7-2.8-4.6c-0.2-2.8,0.1-5.6,0.9-8.3l2.6-10.5c0.5-2.5,1.4-4.9,2.7-7.1c1.3-1.9,3.1-3.4,5.2-4.4
		c2.5-1.3,5.2-1.9,8-1.9c2.5-0.1,4.9,0.5,7,1.9c1.7,1,2.8,2.8,3,4.7C284.6,39.9,284.2,42.6,283.4,45.2z"/>
	<path class="st0" d="M296.7,45.6h-10.5l0.6-2.5c0.5-2.3,1.4-4.6,2.6-6.6c1.3-1.8,3-3.2,5-4.1c2.5-1.2,5.3-1.9,8.2-1.8
		c3.8,0,6.5,0.7,8.1,2c1.5,1.2,2.4,3,2.2,4.9c-0.1,2-0.9,6-2.4,12.1l-4.6,18.5H295l0.8-3.3c-0.9,1.2-2.1,2.3-3.4,3
		c-1.3,0.7-2.7,1-4.1,1c-1.8,0.1-3.6-0.5-5-1.6c-1.3-1.1-1.6-3.5-0.7-7.2l0.8-3c0.7-2.8,1.6-4.6,2.7-5.6s3.6-2.2,7.3-3.5
		c4-1.4,6.3-2.4,6.6-2.9c0.6-0.9,1-2,1.2-3.1c0.4-1.2,0.6-2.5,0.5-3.8c-0.1-0.6-0.6-0.9-1.2-0.9c-0.6-0.1-1.2,0.2-1.6,0.7
		c-0.6,1.2-1,2.5-1.2,3.8L296.7,45.6z M299,50.6c-2.1,1.3-3.4,2.4-4,3.3c-0.6,1.2-1.1,2.5-1.4,3.8c-0.4,1.2-0.6,2.4-0.5,3.7
		c0.1,0.6,0.7,0.9,1.3,0.8c0.6,0.1,1.2-0.2,1.5-0.6c0.6-1.1,0.9-2.2,1.2-3.4L299,50.6z"/>
	<path class="st0" d="M330.1,31.3l-1.7,4.9c2.5-3.5,5.3-5.3,8.5-5.5l-3.2,13c-1.6-0.1-3.2,0.2-4.7,0.8c-1,0.5-1.9,1.3-2.4,2.3
		c-0.8,2.2-1.5,4.5-2,6.9L321,68.2h-11.3l9.2-36.9L330.1,31.3L330.1,31.3z"/>
	<path class="st0" d="M359.2,43.1h-9.9l0.5-2c0.3-1,0.5-2.1,0.5-3.2c-0.1-0.5-0.5-0.7-1.3-0.7c-0.6,0-1.2,0.2-1.6,0.6
		c-0.5,0.5-0.8,1.2-0.9,1.9c-0.2,0.8-0.4,1.6-0.4,2.5c0.1,0.7,0.5,1.3,1,1.7c1.3,1.1,2.7,2,4.2,2.8c2.9,1.6,4.6,3.1,5.3,4.5
		c0.7,1.4,0.7,3.5,0,6.1c-0.5,2.4-1.5,4.7-2.9,6.8c-1.2,1.6-2.9,2.8-4.8,3.5c-2.2,0.9-4.5,1.3-6.9,1.2c-2.4,0.1-4.8-0.4-7-1.3
		c-1.6-0.6-2.8-2-3.3-3.6c-0.4-1.5-0.2-3.8,0.6-6.9l0.4-1.8h9.9l-0.6,2.3c-0.4,1.2-0.6,2.6-0.6,3.9c0.1,0.6,0.7,1,1.3,0.9
		c0,0,0,0,0,0c0.7,0,1.3-0.2,1.8-0.6c0.6-0.7,0.9-1.6,1.1-2.5c0.4-1.8,0.5-2.9,0.2-3.3c-0.3-0.4-2.2-1.8-5.5-3.9
		c-2.8-1.9-4.4-3.5-4.8-5c-0.3-1.8-0.3-3.6,0.3-5.4c0.5-2.3,1.4-4.6,2.8-6.5c1.3-1.5,2.9-2.6,4.8-3.2c2.2-0.8,4.5-1.2,6.8-1.1
		c2-0.1,4.1,0.2,6,0.9c1.3,0.5,2.5,1.3,3.3,2.5c0.6,0.8,1,1.8,1,2.8c-0.1,1.4-0.4,2.7-0.7,4.1L359.2,43.1z"/>
	<path class="st2" d="M233.7,23.2l-17,29.4l-1.9,7.7h13.3l-2,7.9h5.7l11.3-45L233.7,23.2L233.7,23.2z M234.8,33.4L230,52.6h-5"/>
	<polygon class="st2" points="248.6,23.2 245.2,23.2 233.9,68.2 237.4,68.2 239.3,60.3 242.5,60.3 244.4,52.6 241.3,52.6 	"/>
	<path class="st3" d="M22.3,68.6c1,1.4,3.9,1.6,6.1,1.3c0.8-0.1,1.6-0.4,2.3-0.6c0.1-0.1,0.2-0.2,0.3-0.3c1.3-1.2,2.3-2.7,3-4.3
		c0.9-2.3,1.6-4.7,2.1-7.2l6.5-26H30.9l-7.3,29.1c-0.3,1.5-0.8,2.9-1.4,4.3c-0.2,0.3-0.4,0.5-0.7,0.7C21.4,66.7,21.7,67.8,22.3,68.6
		z"/>
	<g>
		<path d="M219.4,109.1h3.2l-1.5,7.1c-0.2,0.8-0.3,1.4-0.3,1.6c0,0.3,0.1,0.6,0.4,0.9c0.3,0.2,0.6,0.4,1,0.4c0.3,0,0.6-0.1,0.8-0.2
			c0.3-0.1,0.6-0.3,0.9-0.5s0.6-0.5,0.8-0.8c0.2-0.3,0.4-0.7,0.7-1.1c0.1-0.3,0.3-0.9,0.5-1.7l1.2-5.7h3.2l-2.5,11.9h-3l0.3-1.6
			c-1.3,1.3-2.8,1.9-4.3,1.9c-1,0-1.8-0.3-2.3-0.8s-0.8-1.3-0.8-2.3c0-0.4,0.1-1.2,0.4-2.5L219.4,109.1z"/>
		<path d="M233.3,109.1h3.1l-0.3,1.2c0.7-0.5,1.3-0.9,1.8-1.2c0.6-0.2,1.2-0.3,1.8-0.3c1.3,0,2.3,0.4,3,1.3s1.1,2.1,1.1,3.9
			c0,2.1-0.7,4-2,5.4c-1.1,1.3-2.5,1.9-4,1.9c-1.6,0-2.8-0.6-3.6-1.9l-1.3,6.2h-3.2L233.3,109.1z M235.3,115.9
			c0,0.9,0.2,1.6,0.7,2.2s1,0.8,1.6,0.8c0.5,0,1-0.2,1.5-0.6s0.9-1,1.2-1.9c0.3-0.9,0.5-1.7,0.5-2.5c0-0.9-0.2-1.6-0.6-2
			s-1-0.7-1.6-0.7c-0.6,0-1.2,0.2-1.7,0.7c-0.5,0.4-0.9,1.1-1.2,1.9C235.4,114.5,235.3,115.3,235.3,115.9z"/>
		<path d="M244.8,121.6l3.4,0.5c0,0.3,0.1,0.6,0.2,0.8c0.1,0.2,0.3,0.3,0.5,0.4c0.3,0.1,0.6,0.2,1,0.2c0.7,0,1.2-0.1,1.6-0.4
			c0.3-0.2,0.6-0.5,0.8-1c0.1-0.3,0.3-0.9,0.5-1.9l0.1-0.6c-1.1,0.9-2.3,1.4-3.5,1.4c-1.2,0-2.1-0.4-2.9-1.2c-0.7-0.8-1.1-2-1.1-3.6
			c0-1.4,0.3-2.7,0.8-3.9c0.5-1.2,1.2-2.1,2.1-2.7c0.9-0.6,1.9-0.9,2.8-0.9c0.8,0,1.5,0.2,2.2,0.6c0.7,0.4,1.2,1,1.5,1.8l0.4-2.1h3
			l-2.1,9.9c-0.3,1.6-0.6,2.7-0.9,3.4c-0.2,0.7-0.5,1.2-0.8,1.6s-0.7,0.7-1.1,1c-0.5,0.3-1,0.5-1.6,0.6c-0.6,0.1-1.3,0.2-2,0.2
			c-1.7,0-3-0.3-3.8-0.9c-0.9-0.6-1.3-1.5-1.3-2.9C244.8,122,244.8,121.8,244.8,121.6z M248.6,115.9c0,0.9,0.2,1.6,0.6,2.1
			s0.9,0.7,1.5,0.7c0.6,0,1.1-0.2,1.6-0.6c0.5-0.4,0.9-1,1.2-1.8c0.3-0.8,0.4-1.5,0.4-2.3c0-0.8-0.2-1.5-0.7-2
			c-0.5-0.5-1-0.8-1.6-0.8c-0.6,0-1.1,0.2-1.6,0.7c-0.5,0.5-0.9,1.2-1.2,2.1C248.7,114.6,248.6,115.3,248.6,115.9z"/>
		<path d="M261.4,109.1h3l-0.5,2.3c1.1-1.7,2.3-2.6,3.6-2.6c0.5,0,1,0.1,1.5,0.3l-1.2,2.6c-0.3-0.1-0.6-0.2-0.9-0.2
			c-0.6,0-1.1,0.2-1.7,0.6c-0.6,0.4-1,1-1.3,1.7s-0.6,1.8-1,3.3l-0.8,3.7h-3.2L261.4,109.1z"/>
		<path d="M272.5,112.5l-3.1-0.3c0.4-1.1,1-1.9,1.9-2.5c0.9-0.6,2.1-0.9,3.6-0.9c1.5,0,2.7,0.3,3.4,0.9c0.7,0.6,1.1,1.4,1.1,2.3
			c0,0.4,0,0.7-0.1,1.1s-0.3,1.5-0.7,3.2c-0.3,1.4-0.5,2.4-0.5,3c0,0.5,0.1,1.1,0.3,1.7h-3.1c-0.1-0.4-0.2-0.9-0.2-1.3
			c-0.5,0.5-1,0.9-1.6,1.2c-0.6,0.3-1.2,0.4-1.9,0.4c-1,0-1.8-0.3-2.4-1s-1-1.5-1-2.5c0-1.1,0.4-2,1.1-2.7c0.7-0.7,2-1.1,3.8-1.2
			c1.5-0.1,2.6-0.3,3.1-0.5c0.1-0.4,0.2-0.8,0.2-1.1c0-0.3-0.1-0.6-0.4-0.9c-0.3-0.2-0.7-0.3-1.2-0.3c-0.6,0-1,0.1-1.4,0.4
			C272.9,111.7,272.7,112,272.5,112.5z M275.6,115.4c-0.2,0.1-0.5,0.1-0.8,0.1c-1.6,0.2-2.7,0.5-3.2,0.9c-0.4,0.3-0.5,0.6-0.5,1.1
			c0,0.4,0.1,0.7,0.4,0.9c0.3,0.3,0.6,0.4,1.1,0.4c0.5,0,0.9-0.1,1.4-0.4c0.4-0.2,0.8-0.5,1-0.9c0.2-0.4,0.4-0.9,0.6-1.7
			L275.6,115.4z"/>
		<path d="M291.8,121h-3.1l0.3-1.3c-0.6,0.6-1.2,1-1.7,1.2s-1.2,0.4-1.9,0.4c-1.2,0-2.2-0.4-3-1.3c-0.8-0.8-1.2-2.1-1.2-3.7
			c0-1.9,0.5-3.6,1.6-5.2c1.1-1.5,2.5-2.3,4.3-2.3c1.6,0,2.8,0.6,3.6,1.9l1.3-6.2h3.2L291.8,121z M284.4,116.1c0,0.9,0.2,1.5,0.6,2
			s1,0.7,1.6,0.7c0.6,0,1.1-0.2,1.6-0.6c0.5-0.4,0.9-1,1.2-1.8c0.3-0.8,0.5-1.6,0.5-2.4c0-0.9-0.2-1.6-0.7-2.1
			c-0.5-0.5-1-0.8-1.6-0.8c-0.9,0-1.7,0.5-2.3,1.6C284.7,113.8,284.4,114.9,284.4,116.1z"/>
		<path d="M306.5,116h-8.1c0,0.1,0,0.2,0,0.3c0,0.8,0.2,1.4,0.7,1.9c0.5,0.5,1,0.7,1.7,0.7c1.1,0,1.9-0.6,2.5-1.7l2.9,0.5
			c-0.6,1.2-1.3,2-2.3,2.6s-2,0.9-3.2,0.9c-1.6,0-2.9-0.5-3.9-1.5c-1-1-1.5-2.4-1.5-4c0-1.6,0.5-3.1,1.4-4.4c1.2-1.7,3-2.6,5.3-2.6
			c1.5,0,2.6,0.5,3.5,1.4c0.9,0.9,1.3,2.2,1.3,3.8C306.7,114.7,306.6,115.4,306.5,116z M303.7,114.1c0-0.1,0-0.3,0-0.3
			c0-0.9-0.2-1.5-0.6-2c-0.4-0.4-0.9-0.7-1.6-0.7s-1.3,0.3-1.8,0.8c-0.5,0.5-0.9,1.2-1.1,2.2H303.7z"/>
		<path d="M316.6,109.1h3.1l-0.3,1.5c0.8-0.7,1.5-1.1,2.1-1.4c0.7-0.3,1.4-0.4,2.1-0.4c1,0,1.8,0.3,2.3,0.8s0.8,1.3,0.8,2.2
			c0,0.4-0.1,1.2-0.4,2.4l-1.4,6.8h-3.2l1.4-6.8c0.2-1,0.3-1.6,0.3-1.8c0-0.4-0.1-0.7-0.4-1c-0.2-0.2-0.6-0.4-1-0.4
			c-0.5,0-1,0.2-1.6,0.6c-0.6,0.4-1,0.9-1.4,1.6c-0.2,0.5-0.5,1.4-0.8,2.8l-1,4.9h-3.2L316.6,109.1z"/>
		<path d="M328.5,116c0-2.2,0.6-4,1.9-5.3c1.2-1.3,2.9-2,4.9-2c1.8,0,3.1,0.5,4.1,1.5s1.5,2.3,1.5,3.9c0,1.9-0.6,3.6-1.9,5
			c-1.2,1.4-2.9,2.1-5,2.1c-1.1,0-2.1-0.2-3-0.7s-1.5-1.1-1.9-1.9C328.8,117.9,328.5,117,328.5,116z M337.7,113.7
			c0-0.8-0.2-1.4-0.7-1.8c-0.4-0.5-1-0.7-1.7-0.7c-0.7,0-1.3,0.2-1.9,0.6s-1,1.1-1.3,1.9c-0.3,0.8-0.4,1.6-0.4,2.3
			c0,0.9,0.2,1.5,0.7,2s1,0.8,1.8,0.8c0.9,0,1.6-0.4,2.2-1.1C337.3,116.6,337.7,115.3,337.7,113.7z"/>
		<path d="M354.6,121h-3l-0.6-7.6l-3.6,7.6h-3l-1.5-11.9h2.9l0.8,8l3.7-8h2.9l0.4,8l3.7-8h3.2L354.6,121z"/>
		<path d="M361.2,117.9h3.2l-0.7,3.1h-3.2L361.2,117.9z M363.8,116.8H362l1-8.4l0.8-3.9h3.4l-0.9,4.2L363.8,116.8z"/>
	</g>
</g>
</svg>
