<svg id="40b24757-4f0c-40c1-aa89-ed97a86494ad" data-name="Детали" xmlns="http://www.w3.org/2000/svg" viewBox="0 0 30.56 30.72"><title>10</title><path d="M1739.82,317.78c-0.57.3-1.11,0.61-1.66,0.87a10.94,10.94,0,0,1-3.56,1,11.51,11.51,0,0,1-12.47-9.21,11.09,11.09,0,0,1-.19-3.13,11.52,11.52,0,0,1,22.63-2,11.06,11.06,0,0,1,.37,3.09,11.45,11.45,0,0,1-2.1,6.43c-0.16.22-.16,0.22,0,0.4l8.87,7.59a2.06,2.06,0,0,1,.62,2.18,3.15,3.15,0,0,1-3,2.41,2,2,0,0,1-1.53-.68l-3-3.28-3.84-4.23Zm2.49-9.56a8.9,8.9,0,1,0-8.79,8.9A8.89,8.89,0,0,0,1742.31,308.23Z" transform="translate(-1721.9 -296.64)" style="fill:#fff"/><path d="M1740.42,308.59a0.84,0.84,0,0,1-.85-0.81,6.38,6.38,0,0,0-1.57-3.54,7.3,7.3,0,0,0-3.62-2.16c-0.23-.06-0.47-0.1-0.71-0.16a0.83,0.83,0,0,1-.64-1,0.85,0.85,0,0,1,1-.67,9.13,9.13,0,0,1,5.14,2.72,7.94,7.94,0,0,1,2,4.13,4.12,4.12,0,0,1,.08.62A0.79,0.79,0,0,1,1740.42,308.59Z" transform="translate(-1721.9 -296.64)" style="fill:#fff"/></svg>